<svg width="32" height="32" viewBox="0 0 32 32" fill="none" xmlns="http://www.w3.org/2000/svg">
<path d="M18.0361 0C22.9236 0 25.3677 0.000123785 27.2344 0.951172C28.8766 1.78788 30.2122 3.12347 31.0488 4.76562C31.9999 6.63244 32 9.07649 32 13.9639V18.0361C32 22.9235 31.9999 25.3677 31.0488 27.2344C30.2122 28.8766 28.8766 30.2122 27.2344 31.0488C25.3677 31.9999 22.9235 32 18.0361 32H13.9639C9.07649 32 6.63244 31.9999 4.76562 31.0488C3.12347 30.2122 1.78788 28.8766 0.951172 27.2344C0.00012352 25.3677 0 22.9236 0 18.0361V13.9639C0 9.07647 0.000146514 6.63244 0.951172 4.76562C1.78788 3.12347 3.12347 1.78788 4.76562 0.951172C6.63244 0.000145703 9.07647 0 13.9639 0H18.0361ZM13.9639 2.90918C11.4722 2.90918 9.77805 2.91161 8.46875 3.01855C7.19349 3.12275 6.54091 3.31118 6.08594 3.54297C4.99117 4.10079 4.10079 4.99117 3.54297 6.08594C3.31118 6.54091 3.12275 7.19349 3.01855 8.46875C2.91161 9.77805 2.90918 11.4722 2.90918 13.9639V18.0361C2.90918 20.5279 2.9116 22.2219 3.01855 23.5312C3.12274 24.8066 3.31119 25.4591 3.54297 25.9141C4.10079 27.0088 4.99117 27.8992 6.08594 28.457C6.54091 28.6888 7.1935 28.8773 8.46875 28.9814C9.77805 29.0883 11.4722 29.0908 13.9639 29.0908H18.0361C20.5279 29.0908 22.2219 29.0883 23.5312 28.9814C24.8065 28.8773 25.4591 28.6888 25.9141 28.457C27.0088 27.8992 27.8992 27.0088 28.457 25.9141C28.6888 25.4591 28.8773 24.8065 28.9814 23.5312C29.0883 22.2219 29.0908 20.5279 29.0908 18.0361V13.9639C29.0908 11.4722 29.0883 9.77805 28.9814 8.46875C28.8773 7.1935 28.6888 6.54091 28.457 6.08594C27.8992 4.99117 27.0088 4.10079 25.9141 3.54297C25.4591 3.31119 24.8066 3.12274 23.5312 3.01855C22.2219 2.91161 20.5279 2.90918 18.0361 2.90918H13.9639ZM16 7.27246C20.8199 7.27246 24.7275 11.1801 24.7275 16C24.7275 20.8199 20.8199 24.7275 16 24.7275C11.1801 24.7275 7.27246 20.8199 7.27246 16C7.27246 11.1801 11.1801 7.27246 16 7.27246ZM16 10.1816C12.7867 10.1816 10.1816 12.7867 10.1816 16C10.1816 19.2132 12.7867 21.8184 16 21.8184C19.2132 21.8184 21.8184 19.2132 21.8184 16C21.8184 12.7867 19.2132 10.1816 16 10.1816ZM24.7275 5.81836C25.5307 5.81851 26.1815 6.46936 26.1816 7.27246C26.1816 8.07569 25.5308 8.72739 24.7275 8.72754C23.9242 8.72754 23.2725 8.07578 23.2725 7.27246C23.2726 6.46927 23.9243 5.81836 24.7275 5.81836Z" fill="white"/>
</svg>
